<mxfile host="Electron" modified="2024-02-22T07:12:30.332Z" agent="Mozilla/5.0 (X11; Linux x86_64) AppleWebKit/537.36 (KHTML, like Gecko) draw.io/21.6.8 Chrome/114.0.5735.289 Electron/25.5.0 Safari/537.36" etag="ZXgLyMMYPFUPVzKEZo1u" version="21.6.8" type="device">
  <diagram name="Page-1" id="O-d1Ld1n8ro7KL-7J7lJ">
    <mxGraphModel dx="768" dy="576" grid="1" gridSize="10" guides="1" tooltips="1" connect="1" arrows="1" fold="1" page="1" pageScale="1" pageWidth="1920" pageHeight="1200" math="0" shadow="0">
      <root>
        <mxCell id="0" />
        <mxCell id="1" parent="0" />
        <mxCell id="B_4-6Zfp6KIpH1WaT9qI-1" value="Electron Microscopy Data Acquisition Pipeline" style="swimlane;whiteSpace=wrap;html=1;" vertex="1" parent="1">
          <mxGeometry x="20" y="20" width="610" height="130" as="geometry" />
        </mxCell>
        <mxCell id="B_4-6Zfp6KIpH1WaT9qI-4" value="" style="edgeStyle=orthogonalEdgeStyle;rounded=0;orthogonalLoop=1;jettySize=auto;html=1;" edge="1" parent="B_4-6Zfp6KIpH1WaT9qI-1" source="B_4-6Zfp6KIpH1WaT9qI-2" target="B_4-6Zfp6KIpH1WaT9qI-3">
          <mxGeometry relative="1" as="geometry" />
        </mxCell>
        <mxCell id="B_4-6Zfp6KIpH1WaT9qI-2" value="Identify Resource Constraints" style="rounded=0;whiteSpace=wrap;html=1;" vertex="1" parent="B_4-6Zfp6KIpH1WaT9qI-1">
          <mxGeometry x="20" y="50" width="120" height="60" as="geometry" />
        </mxCell>
        <mxCell id="B_4-6Zfp6KIpH1WaT9qI-6" value="" style="edgeStyle=orthogonalEdgeStyle;rounded=0;orthogonalLoop=1;jettySize=auto;html=1;" edge="1" parent="B_4-6Zfp6KIpH1WaT9qI-1" source="B_4-6Zfp6KIpH1WaT9qI-3" target="B_4-6Zfp6KIpH1WaT9qI-5">
          <mxGeometry relative="1" as="geometry" />
        </mxCell>
        <mxCell id="B_4-6Zfp6KIpH1WaT9qI-3" value="Divide Requested Volume Into Subregions" style="rounded=0;whiteSpace=wrap;html=1;" vertex="1" parent="B_4-6Zfp6KIpH1WaT9qI-1">
          <mxGeometry x="170" y="50" width="120" height="60" as="geometry" />
        </mxCell>
        <mxCell id="B_4-6Zfp6KIpH1WaT9qI-8" value="" style="edgeStyle=orthogonalEdgeStyle;rounded=0;orthogonalLoop=1;jettySize=auto;html=1;" edge="1" parent="B_4-6Zfp6KIpH1WaT9qI-1" source="B_4-6Zfp6KIpH1WaT9qI-5" target="B_4-6Zfp6KIpH1WaT9qI-7">
          <mxGeometry relative="1" as="geometry" />
        </mxCell>
        <mxCell id="B_4-6Zfp6KIpH1WaT9qI-5" value="Rasterize Geometric Primitives Into Voxel Array" style="rounded=0;whiteSpace=wrap;html=1;" vertex="1" parent="B_4-6Zfp6KIpH1WaT9qI-1">
          <mxGeometry x="320" y="50" width="120" height="60" as="geometry" />
        </mxCell>
        <mxCell id="B_4-6Zfp6KIpH1WaT9qI-7" value="Convert Voxel Array To Images, Apply Post-Processing" style="rounded=0;whiteSpace=wrap;html=1;" vertex="1" parent="B_4-6Zfp6KIpH1WaT9qI-1">
          <mxGeometry x="470" y="50" width="120" height="60" as="geometry" />
        </mxCell>
      </root>
    </mxGraphModel>
  </diagram>
</mxfile>
